<svg xmlns="http://www.w3.org/2000/svg" viewBox="0 0 64 64"><title>clipboard-profile</title><g id="clipboard-profile"><rect x="9" y="10" width="46" height="52" fill="#e6e6e6"/><rect x="11" y="12" width="42" height="48" fill="#fff"/><circle cx="32" cy="31" r="12" fill="#58dcf3"/><line x1="17" y1="48" x2="24" y2="48" fill="none" stroke="#3e3948" stroke-miterlimit="10" stroke-width="2"/><line x1="17" y1="52" x2="37" y2="52" fill="none" stroke="#3e3948" stroke-miterlimit="10" stroke-width="2"/><polyline points="45 10 55 10 55 62 9 62 9 10 19 10" fill="none" stroke="#3e3948" stroke-miterlimit="10" stroke-width="2"/><polyline points="35 7 42 7 42 14 22 14 22 7 29 7" fill="#ffcb47"/><path d="M28,7c0-2.21,1.79-5,4-5s4,2.79,4,5" fill="#ffcb47"/><polyline points="35 6 42 6 42 14 22 14 22 6 29 6" fill="none" stroke="#3e3948" stroke-miterlimit="10" stroke-width="2"/><path d="M28,6a4,4,0,0,1,8,0" fill="none" stroke="#3e3948" stroke-miterlimit="10" stroke-width="2"/><line x1="25" y1="10" x2="39" y2="10" fill="none" stroke="#3e3948" stroke-miterlimit="10" stroke-width="2"/><line x1="31" y1="5.5" x2="33" y2="5.5" fill="none" stroke="#3e3948" stroke-miterlimit="10" stroke-width="2"/><circle cx="32" cy="25" r="3" fill="#fff"/><path d="M35,27l1.23,1A1.76,1.76,0,0,1,38,29.7V38H26V29.7A1.76,1.76,0,0,1,27.77,28L29,27" fill="#ff504d"/><circle cx="32" cy="25" r="3" fill="none" stroke="#3e3948" stroke-miterlimit="10" stroke-width="2"/><path d="M35,28h1.23A1.76,1.76,0,0,1,38,29.7V38H26V29.7A1.76,1.76,0,0,1,27.77,28H29" fill="none" stroke="#3e3948" stroke-miterlimit="10" stroke-width="2"/><line x1="31" y1="31" x2="33" y2="31" fill="none" stroke="#3e3948" stroke-miterlimit="10" stroke-width="2"/><line x1="31" y1="34" x2="33" y2="34" fill="none" stroke="#3e3948" stroke-miterlimit="10" stroke-width="2"/><line x1="39" y1="52" x2="47" y2="52" fill="none" stroke="#3e3948" stroke-miterlimit="10" stroke-width="2"/><line x1="26" y1="48" x2="47" y2="48" fill="none" stroke="#3e3948" stroke-miterlimit="10" stroke-width="2"/><line x1="17" y1="56" x2="32" y2="56" fill="none" stroke="#3e3948" stroke-miterlimit="10" stroke-width="2"/></g></svg>